<svg width="30" height="88" viewBox="0 0 30 88" fill="none" xmlns="http://www.w3.org/2000/svg">
<path d="M3.62951 44.3105C3.62951 48.2949 4.61584 51.3516 6.5885 53.4805C8.58068 55.6094 11.3151 56.6738 14.7916 56.6738C18.3268 56.6738 21.0612 55.5215 22.9947 53.2168C24.9479 50.8926 25.9244 47.5137 25.9244 43.0801V13.3438H22.9947V42.875C22.9947 46.8008 22.2721 49.6523 20.8268 51.4297C19.401 53.207 17.3893 54.0957 14.7916 54.0957C12.0963 54.0957 10.0455 53.2559 8.63928 51.5762C7.25256 49.8965 6.5592 47.3574 6.5592 43.959V43.5195H3.62951V44.3105Z" fill="#D63D3D"/>
<path d="M25.8744 43.6895C25.8744 39.7051 24.8881 36.6484 22.9154 34.5195C20.9232 32.3906 18.1889 31.3262 14.7123 31.3262C11.1771 31.3262 8.44276 32.4785 6.50917 34.7832C4.55604 37.1074 3.57948 40.4863 3.57948 44.9199L3.57947 74.6562L6.50916 74.6562L6.50916 45.125C6.50917 41.1992 7.23182 38.3477 8.67713 36.5703C10.1029 34.793 12.1146 33.9043 14.7123 33.9043C17.4076 33.9043 19.4584 34.7441 20.8646 36.4238C22.2514 38.1035 22.9447 40.6426 22.9447 44.041L22.9447 44.4805L25.8744 44.4805L25.8744 43.6895Z" fill="#D63D3D"/>
</svg>
