<svg width="274" height="113" viewBox="0 0 274 113" fill="none" xmlns="http://www.w3.org/2000/svg">
<rect x="16.0005" y="98" width="14.8571" height="14.8571" fill="#DE4C81"/>
<rect x="38.2861" y="98" width="14.8571" height="14.8571" fill="#DE4C81"/>
<rect x="60.5718" y="98" width="14.8571" height="14.8571" fill="#DE4C81"/>
<rect x="82.8577" y="98" width="14.8571" height="14.8571" fill="#DE4C81"/>
<rect x="105" y="98" width="14.8571" height="14.8571" fill="#DE4C81"/>
<rect x="105.143" y="98" width="14.8571" height="14.8571" fill="#040002" fill-opacity="0.3"/>
<path d="M19.8634 86L19.8634 30L49.0634 30L49.0634 39.6L30.8234 39.6L30.8234 53.6L46.6634 53.6L46.6634 62.88L30.8234 62.88L30.8234 86L19.8634 86ZM53.2916 86L53.2916 45.12L63.8516 45.12L63.8516 86L53.2916 86ZM53.2916 30L63.8516 30L63.8516 40.8L53.2916 40.8L53.2916 30ZM81.2734 30L81.2734 86L70.7134 86L70.7134 30L81.2734 30ZM98.6953 30L98.6953 86L88.1353 86L88.1353 30L98.6953 30ZM111.077 30L130.277 30L130.277 39.6L114.917 39.6L114.677 40.08L127.477 63.44C130.091 68.1334 131.397 71.7067 131.397 74.16C131.397 79.5467 129.611 83.4934 126.037 86L104.837 86L104.837 76.72L121.397 76.72L121.637 76.24L107.237 50.4C105.157 46.6667 104.117 43.6267 104.117 41.28C104.117 35.7333 106.437 31.9733 111.077 30ZM137.41 68.16L137.41 53.52L131.89 53.52L131.89 45.12L137.41 45.12L137.41 34L148.05 34L148.05 45.12L154.61 45.12L154.61 53.52L148.05 53.52L148.05 70.72C148.05 73.9734 148.61 76.2667 149.73 77.6L154.61 77.6L154.61 86L143.25 86C140.424 83.3867 138.717 80.56 138.13 77.52C137.65 74.96 137.41 71.84 137.41 68.16ZM178.822 67.52L170.262 67.52C169.142 68.9067 168.582 70.64 168.582 72.72C168.582 74.8 169.168 76.4267 170.342 77.6L178.822 77.6L178.822 67.52ZM161.622 45.12L181.462 45.12C184.662 47.04 186.768 49.2534 187.782 51.76C188.795 54.2134 189.302 57.5734 189.302 61.84L189.302 73.84C189.302 78.2667 189.408 82.32 189.622 86L180.502 86L179.062 83.12C176.982 85.04 174.048 86 170.262 86L165.222 86C160.688 83.0134 158.422 78.72 158.422 73.12C158.422 67.4667 160.742 63.0134 165.382 59.76L172.902 59.76C174.982 59.76 176.928 60.4 178.742 61.68L178.742 57.68C178.742 55.6 177.835 54.2134 176.022 53.52L161.622 53.52L161.622 45.12ZM206.102 65.2C206.102 67.44 206.449 69.7334 207.142 72.08C207.836 74.3734 208.796 76.2134 210.022 77.6L222.022 77.6L222.022 86L204.502 86C198.209 80.9867 195.062 74.0534 195.062 65.2C195.062 56.3467 198.422 49.6534 205.142 45.12L222.022 45.12L222.022 53.52L210.022 53.52C207.409 56.24 206.102 60.1334 206.102 65.2ZM227.354 86L227.354 30L237.994 30L237.994 59.68L239.114 59.68L246.634 45.12L257.034 45.12L247.594 62.96L257.114 86L246.554 86L239.194 68.08L237.994 68.08L237.994 86L227.354 86Z" fill="white"/>
</svg>
