<svg width="284" height="104" viewBox="0 0 284 104" fill="none" xmlns="http://www.w3.org/2000/svg">
<path d="M64.2181 39.6L64.2181 59.6L71.3381 59.6C74.2715 57.2 75.7381 53.68 75.7381 49.04C75.7381 47.0667 75.3381 45.2 74.5381 43.44C73.7915 41.68 72.8848 40.4 71.8181 39.6L64.2181 39.6ZM53.4181 86L53.4181 30L75.0981 30C78.7248 31.6 81.5781 34.0533 83.6581 37.36C85.7915 40.6667 86.8581 44.5333 86.8581 48.96C86.8581 53.3333 85.7648 57.3867 83.5781 61.12C81.3915 64.8533 78.1648 67.4933 73.8981 69.04L64.2181 69.04L64.2181 86L53.4181 86ZM107.454 76.72L121.534 76.72L121.534 86L101.214 86C97.6937 82.6933 95.0271 78.5067 93.2137 73.44C91.4004 68.3733 90.4937 63.1733 90.4937 57.84C90.4937 52.4533 91.5071 47.28 93.5338 42.32C95.5604 37.36 98.5738 33.2533 102.574 30L121.534 30L121.534 39.6L107.454 39.6C106.014 41.2533 104.76 43.92 103.694 47.6C102.68 51.28 102.174 54.8 102.174 58.16C102.174 61.52 102.68 65.04 103.694 68.72C104.76 72.4 106.014 75.0667 107.454 76.72Z" fill="#DB4343"/>
<path d="M127.402 86L127.403 30L150.203 30C152.816 30.96 155.136 32.64 157.163 35.04C159.189 37.44 160.203 40.3467 160.203 43.76C160.203 49.7867 158.229 54 154.282 56.4L154.282 56.72C159.189 59.44 161.642 63.7067 161.642 69.52C161.642 76.1867 158.256 81.68 151.482 86L127.402 86ZM138.282 53.12L146.203 53.12C148.549 51.68 149.723 49.4934 149.723 46.56C149.723 43.6267 148.629 41.3067 146.443 39.6L138.283 39.6L138.282 53.12ZM138.282 76.72L146.522 76.72C147.482 76.0267 148.336 74.9334 149.082 73.44C149.882 71.9467 150.282 70.4534 150.282 68.96C150.282 67.4667 149.962 66.1067 149.322 64.88C148.682 63.6534 147.882 62.7467 146.922 62.16L138.282 62.16L138.282 76.72ZM181.241 86L172.841 86C170.494 83.0134 168.894 80.0267 168.041 77.04C167.187 74.0534 166.761 70.32 166.761 65.84L166.761 45.12L177.401 45.12L177.401 66.64C177.401 71.4934 178.361 75.1467 180.281 77.6L187.721 77.6L187.721 45.12L198.361 45.12L198.361 86L189.961 86L188.521 83.12C186.494 85.04 184.067 86 181.241 86ZM205.206 86L205.206 45.12L215.766 45.12L215.766 86L205.206 86ZM205.206 30L215.766 30L215.766 40.8L205.206 40.8L205.206 30ZM233.187 30L233.187 86L222.627 86L222.627 30L233.187 30ZM271.009 86L262.929 86L261.489 83.12C260.316 84.1867 259.196 84.9334 258.129 85.36C257.116 85.7867 255.569 86 253.489 86L246.529 86C244.183 83.76 242.316 80.8267 240.929 77.2C239.596 73.5734 238.929 69.52 238.929 65.04C238.929 60.5067 239.596 56.6667 240.929 53.52C242.316 50.3734 244.263 47.5734 246.769 45.12L253.649 45.12C256.476 45.12 258.716 45.8667 260.369 47.36L260.369 30L271.009 30L271.009 86ZM260.369 53.52L252.689 53.52C250.716 56.88 249.729 61.0134 249.729 65.92C249.729 70.7734 250.689 74.6667 252.609 77.6L260.369 77.6L260.369 53.52Z" fill="white"/>
<rect x="20.5" y="64.5" width="14" height="14" stroke="white"/>
<rect y="64" width="15" height="15" fill="#DB4343"/>
<rect x="20" y="44" width="15" height="15" fill="#DB4343"/>
<rect y="44" width="15" height="15" fill="white"/>
</svg>
